<?xml version="1.0" encoding="utf-8"?>
<!-- Generator: Adobe Illustrator 23.1.0, SVG Export Plug-In . SVG Version: 6.00 Build 0)  -->
<svg version="1.1" id="Layer_1" xmlns="http://www.w3.org/2000/svg" xmlns:xlink="http://www.w3.org/1999/xlink" x="0px" y="0px"
	 viewBox="0 0 504.46 382.43" style="enable-background:new 0 0 504.46 382.43;" xml:space="preserve">
<style type="text/css">
	.st0{fill:#FFFFFF;}
</style>
<rect x="391.28" y="185.17" class="st0" width="113.18" height="2.69"/>
<rect y="185.17" class="st0" width="112.56" height="2.69"/>
<g>
	<path class="st0" d="M200.24,355.91v2.21h-4.77v3.15h4.49v2.21h-4.49v3.59h4.96v2.21h-7.66v-13.37H200.24z"/>
	<path class="st0" d="M204.89,365.11v0.39c0,1.25,0.36,2.06,1.78,2.06c0.82,0,1.61-0.52,1.61-1.65c0-1.22-0.62-1.67-2.4-2.29
		c-2.4-0.82-3.5-1.82-3.5-4.04c0-2.6,1.59-3.93,4.14-3.93c2.4,0,4.14,1.03,4.14,3.59v0.37h-2.58c0-1.25-0.43-1.98-1.46-1.98
		c-1.22,0-1.54,0.77-1.54,1.55c0,0.82,0.24,1.33,1.39,1.82l2.08,0.9c2.02,0.88,2.55,1.91,2.55,3.54c0,2.83-1.72,4.1-4.64,4.1
		c-3.05,0-4.25-1.42-4.25-3.89v-0.54H204.89z"/>
	<path class="st0" d="M221.19,355.91v2.21h-2.92v11.16h-2.7v-11.16h-2.92v-2.21H221.19z"/>
	<path class="st0" d="M223.42,355.91h4.42c3.74,0,4.42,2.56,4.42,6.5c0,4.74-1.01,6.87-4.59,6.87h-4.25V355.91z M226.12,367.3h1.2
		c1.87,0,2.25-1.18,2.25-4.81c0-3.03-0.24-4.59-2.3-4.59h-1.14V367.3z"/>
</g>
<g>
	<rect x="250.79" y="342.55" class="st0" width="2.69" height="39.88"/>
</g>
<path class="st0" d="M275.25,89.63c-2.54-0.85-7.29-1.59-10.81-2.87c-4.15-1.51-4.34-2.55-7.17-6.05c1.39-1.04,2.57-1.96,3.28-2.65
	c3-2.88,13.11-14.72,18.84-22.92c7.24-10.36,7.24-12.42,6.26-12.89l-33.43,33.01L218.8,42.25c-0.98,0.47-0.98,2.52,6.26,12.89
	c5.73,8.21,15.85,20.04,18.84,22.92c0.72,0.69,1.89,1.62,3.28,2.65c-2.83,3.5-3.02,4.54-7.17,6.05c-3.52,1.29-8.27,2.02-10.81,2.87
	c-9.42,2.45-11.41,10.73-10.75,14.46c0.34,2.57,1.6,4.82,3.51,6.28c4.44,3.44,11.02,1.66,15.41-3.31c2.81-3.19,5.49-13.7,7.72-16.98
	c0.74-1.09,3.84-3.37,7.12-5.73c3.29,2.36,6.38,4.64,7.13,5.73c2.23,3.28,4.92,13.79,7.72,16.98c4.39,4.97,10.97,6.75,15.41,3.31
	c1.92-1.46,3.17-3.71,3.51-6.28C286.66,100.36,284.67,92.09,275.25,89.63z M234.56,104.89c-2.85,3.69-7.51,4.87-10.4,2.65
	c-1.18-0.88-1.91-2.24-2.14-3.9c-0.3-2.27,0.45-4.77,2.05-6.84c2.84-3.69,7.51-4.89,10.4-2.65
	C237.37,96.37,237.4,101.19,234.56,104.89z M282.43,103.63c-0.23,1.66-0.95,3.01-2.14,3.9c-2.89,2.23-7.54,1.04-10.4-2.65
	c-2.84-3.69-2.81-8.52,0.08-10.74c2.88-2.24,7.56-1.04,10.4,2.65C281.98,98.87,282.73,101.36,282.43,103.63z"/>
<path class="st0" d="M379.16,77.26l-67.92-41.33l32.64-23.75L342.29,10l-33.55,24.42L252.18,0l-56.52,34.37L162.17,10l-1.59,2.18
	l32.58,23.71L125.3,77.15l67.92,41.32l-32.64,23.75l1.59,2.18l33.55-24.42l56.56,34.41l56.52-34.37l33.49,24.37l1.58-2.18
	l-32.58-23.71L379.16,77.26z M137.4,77.15L252.18,7.36l114.88,69.9l-114.77,69.79L137.4,77.15z"/>
<g>
	<path class="st0" d="M0.74,227.18h36.23v91.73H0.74V227.18z"/>
	<path class="st0" d="M71.78,227.18h35.07l11.82,56.01h0.26l13.49-56.01h28.91l13.36,56.01h0.26l11.82-56.01h35.07l-26.85,91.73
		H159.4l-12.46-50.87h-0.26l-12.59,50.87H98.51L71.78,227.18z"/>
	<path class="st0" d="M277.46,227.18h44.45l39.05,91.73h-38.54l-3.85-10.53H280.8l-3.85,10.53h-38.54L277.46,227.18z M299.81,254.93
		h-0.26l-10.79,31.09h21.84L299.81,254.93z"/>
	<path class="st0" d="M391.28,227.18h41.37l36.74,50.87h0.39v-50.87h34.69v91.73h-39.7l-38.54-51.39h-0.26v51.39h-34.69V227.18z"/>
</g>
<g>
	<path class="st0" d="M269.57,360.36c-0.1-3.17,1.7-5.6,5.02-5.6c2.53,0,4.75,1.62,4.75,4.33c0,4.19-4.45,4.53-6.47,7.38h6.55v2.41
		h-10.17c0-3.22,1.98-4.55,4.37-6.19c1.21-0.85,2.91-1.68,2.91-3.38c0-1.33-0.87-2.14-2.08-2.14c-1.66,0-2.2,1.72-2.2,3.19H269.57z"
		/>
	<path class="st0" d="M285.31,354.76c2.77,0,5.1,1.74,5.1,7.14c0,5.52-2.33,7.26-5.1,7.26c-2.75,0-5.06-1.74-5.06-7.26
		C280.25,356.5,282.57,354.76,285.31,354.76z M285.31,366.85c2.29,0,2.29-3.38,2.29-4.94c0-1.44,0-4.83-2.29-4.83
		c-2.27,0-2.25,3.38-2.25,4.83C283.06,363.47,283.06,366.85,285.31,366.85z"/>
	<path class="st0" d="M296.31,354.76c2.77,0,5.1,1.74,5.1,7.14c0,5.52-2.33,7.26-5.1,7.26c-2.75,0-5.06-1.74-5.06-7.26
		C291.25,356.5,293.56,354.76,296.31,354.76z M296.31,366.85c2.29,0,2.29-3.38,2.29-4.94c0-1.44,0-4.83-2.29-4.83
		c-2.27,0-2.25,3.38-2.25,4.83C294.06,363.47,294.06,366.85,296.31,366.85z"/>
	<path class="st0" d="M308,365.68h-5.85v-2.57l6.01-8.07h2.51v8.33h1.84v2.31h-1.84v3.2H308V365.68z M308,358.56h-0.06l-3.58,4.81
		H308V358.56z"/>
</g>
<g>
	<path class="st0" d="M138.17,174.49h20.08c3.9,0,7.53,1.8,7.53,6.75c0,2.1-1.05,4.57-3.56,5.36v0.07c3.15,0.49,4.76,3.63,4.76,6.48
		c0,3.56-1.69,8.09-9.74,8.09h-19.07V174.49z M145.44,185.13h10.12c1.69,0,2.74-0.9,2.74-2.89c0-1.69-0.75-2.88-3.75-2.88h-9.1
		V185.13z M145.44,196.15h10.72c2.25,0,3.11-1.46,3.11-3.15c0-2.14-1.27-3.22-3.86-3.22h-9.97V196.15z"/>
	<path class="st0" d="M198.2,195.74h-12.29l-2.17,5.51h-7.83l11.77-26.75h8.77l11.77,26.75h-7.83L198.2,195.74z M192.06,180.26
		l-4.2,10.6h8.39L192.06,180.26z"/>
	<path class="st0" d="M217.73,174.49h19.45c7.38,0,8.66,4.53,8.66,7.27c0,3.3-1.31,5.36-4.35,6.44v0.08
		c3.15,0.49,3.67,4.53,3.67,7.16c0,1.31,0.07,4.5,1.39,5.81h-7.94c-0.67-1.16-0.71-2.36-0.71-5.13c0-3.75-1.61-4.68-3.86-4.68h-9.03
		v9.82h-7.27V174.49z M224.99,186.33h9.63c1.61,0,3.48-0.9,3.48-3.41c0-2.66-2.1-3.34-3.86-3.34h-9.26V186.33z"/>
	<path class="st0" d="M257.14,174.49h20.08c3.9,0,7.53,1.8,7.53,6.75c0,2.1-1.05,4.57-3.56,5.36v0.07c3.15,0.49,4.76,3.63,4.76,6.48
		c0,3.56-1.69,8.09-9.74,8.09h-19.07V174.49z M264.41,185.13h10.12c1.69,0,2.74-0.9,2.74-2.89c0-1.69-0.75-2.88-3.75-2.88h-9.11
		V185.13z M264.41,196.15h10.72c2.25,0,3.11-1.46,3.11-3.15c0-2.14-1.27-3.22-3.86-3.22h-9.97V196.15z"/>
	<path class="st0" d="M297.95,174.49h24.99v5.1h-17.72v5.55h16.83V190h-16.83v6.15h17.88v5.1h-25.14V174.49z"/>
	<path class="st0" d="M334.6,174.49h19.45c7.38,0,8.66,4.53,8.66,7.27c0,3.3-1.31,5.36-4.35,6.44v0.08
		c3.15,0.49,3.67,4.53,3.67,7.16c0,1.31,0.08,4.5,1.39,5.81h-7.94c-0.68-1.16-0.71-2.36-0.71-5.13c0-3.75-1.61-4.68-3.86-4.68h-9.03
		v9.82h-7.27V174.49z M341.87,186.33h9.63c1.61,0,3.48-0.9,3.48-3.41c0-2.66-2.1-3.34-3.86-3.34h-9.25V186.33z"/>
</g>
</svg>
